<svg width="45" height="45" viewBox="0 0 45 45" fill="none" xmlns="http://www.w3.org/2000/svg">
<path d="M27.8906 39.5625L43.6875 23.8125C43.875 23.625 44.0075 23.4219 44.085 23.2031C44.1638 22.9844 44.2031 22.75 44.2031 22.5C44.2031 22.25 44.1638 22.0156 44.085 21.7969C44.0075 21.5781 43.875 21.375 43.6875 21.1875L27.8906 5.39062C27.4531 4.95312 26.9063 4.73438 26.25 4.73438C25.5938 4.73438 25.0313 4.96875 24.5625 5.4375C24.0938 5.90625 23.8594 6.45312 23.8594 7.07812C23.8594 7.70312 24.0938 8.25 24.5625 8.71875L38.3438 22.5L24.5625 36.2812C24.125 36.7188 23.9063 37.2575 23.9063 37.8975C23.9063 38.5387 24.1406 39.0938 24.6094 39.5625C25.0781 40.0312 25.625 40.2656 26.25 40.2656C26.875 40.2656 27.4219 40.0312 27.8906 39.5625Z" fill="#F8E4BE"/>
</svg>
