<svg width="45" height="45" viewBox="0 0 45 45" fill="none" xmlns="http://www.w3.org/2000/svg">
<path d="M17.1094 39.5625L1.3125 23.8125C1.125 23.625 0.9925 23.4219 0.915 23.2031C0.83625 22.9844 0.796875 22.75 0.796875 22.5C0.796875 22.25 0.83625 22.0156 0.915 21.7969C0.9925 21.5781 1.125 21.375 1.3125 21.1875L17.1094 5.39062C17.5469 4.95312 18.0937 4.73438 18.75 4.73438C19.4062 4.73438 19.9687 4.96875 20.4375 5.4375C20.9062 5.90625 21.1406 6.45312 21.1406 7.07812C21.1406 7.70312 20.9062 8.25 20.4375 8.71875L6.65625 22.5L20.4375 36.2812C20.875 36.7188 21.0937 37.2575 21.0937 37.8975C21.0937 38.5387 20.8594 39.0938 20.3906 39.5625C19.9219 40.0312 19.375 40.2656 18.75 40.2656C18.125 40.2656 17.5781 40.0312 17.1094 39.5625Z" fill="#F8E4BE"/>
</svg>
