<svg width="1605" height="6178" viewBox="0 0 1605 6178" fill="none" xmlns="http://www.w3.org/2000/svg">
<path fill-rule="evenodd" clip-rule="evenodd" d="M48.8614 5079.62C41.6239 5076.63 34.9544 5071.97 29.2359 5065.91C37.6319 5065.66 45.9931 5064.54 54.223 5062.55C72.4455 5057.39 89.2615 5046.8 103.084 5031.78C130.095 5001.61 142.437 4968.43 153.666 4929.48C162.827 4894.69 169.959 4859.19 175.011 4823.23C177.54 4811.21 179.158 4799.19 181.687 4787.17C182.497 4784.16 183.711 4780.79 184.419 4777.91C185.127 4775.03 185.329 4776.35 183.306 4777.91C181.283 4779.47 184.925 4776.59 189.78 4775.03C239.451 4800.87 250.478 4886.69 213.149 4969.99C175.82 5053.29 101.871 5104.5 49.0638 5080.7L48.8614 5079.62ZM25.8975 5063.03C-6.4744 5026.97 -9.40811 4953.77 22.2557 4882.73C51.6939 4816.49 103.186 4771.66 149.417 4766.25C148.102 4770.22 147.394 4774.06 146.888 4775.51C144.864 4789.21 143.65 4802.91 142.437 4816.49C140.694 4852.14 137.147 4887.62 131.814 4922.75C124.733 4959.78 116.64 4992.47 94.789 5023.72C83.3673 5038.78 68.8217 5050.01 52.6044 5056.3C43.9167 5059.54 34.9643 5061.67 25.8975 5062.67V5063.03Z" fill="#AF7F58" fill-opacity="0.15"/>
<path fill-rule="evenodd" clip-rule="evenodd" d="M1561.64 6157.32C1558.91 6159.39 1555.65 6160.87 1552.07 6161.68C1553.8 6158.45 1555.19 6155.04 1556.22 6151.49C1558.2 6143.45 1557.78 6134.74 1555 6126.17C1549.24 6109.24 1539.13 6097.18 1526.54 6084.25C1515.11 6073.03 1502.96 6062.42 1490.18 6052.5C1486.09 6048.86 1481.8 6045.57 1477.71 6041.94C1476.73 6040.96 1475.69 6039.75 1474.73 6038.84C1473.78 6037.93 1474.33 6038.15 1474.49 6039.26C1474.65 6040.38 1474.33 6038.36 1474.79 6036.17C1495.6 6023.17 1531.14 6038.14 1555.16 6070.81C1579.17 6103.48 1582.81 6142.84 1562.1 6157.48L1561.64 6157.32ZM1550.22 6162.29C1529.24 6166.49 1500.34 6151.28 1479.82 6123.48C1460.68 6097.59 1454.6 6068.14 1462.6 6049.47C1463.84 6050.85 1465.17 6051.97 1465.62 6052.49C1470.47 6056.31 1475.49 6059.82 1480.47 6063.31C1493.85 6071.91 1506.78 6081.16 1519.18 6091.01C1531.92 6101.94 1542.78 6112.28 1550.08 6127.5C1553.4 6135.18 1554.56 6143.18 1553.45 6150.7C1552.81 6154.71 1551.68 6158.57 1550.09 6162.21L1550.22 6162.29Z" fill="#AF7F58" fill-opacity="0.15"/>
<path fill-rule="evenodd" clip-rule="evenodd" d="M1437.81 6113.3C1436.14 6114.73 1434.21 6115.82 1432.12 6116.51C1433.27 6114.39 1434.23 6112.18 1434.99 6109.9C1436.52 6104.75 1436.71 6099.29 1435.54 6094.04C1433.07 6083.67 1427.88 6076.58 1421.31 6069.07C1415.31 6062.58 1408.88 6056.5 1402.05 6050.89C1399.89 6048.8 1397.6 6046.94 1395.44 6044.86C1394.92 6044.29 1394.39 6043.58 1393.89 6043.06C1393.38 6042.53 1393.69 6042.64 1393.73 6043.34C1393.77 6044.03 1393.68 6042.77 1394.05 6041.38C1406.6 6032.18 1426.2 6039.85 1438.34 6059.22C1450.48 6078.59 1450.63 6103.15 1438.06 6113.38L1437.81 6113.3ZM1431.03 6116.99C1418.82 6120.65 1403.03 6112.51 1392.65 6096.03C1382.96 6080.69 1380.93 6062.47 1386.42 6050.34C1387.07 6051.14 1387.77 6051.79 1388 6052.09C1390.59 6054.25 1393.29 6056.21 1395.97 6058.16C1403.21 6062.92 1410.15 6068.1 1416.76 6073.68C1423.52 6079.93 1429.23 6085.9 1432.66 6095.12C1434.18 6099.78 1434.45 6104.75 1433.45 6109.54C1432.88 6112.09 1432.05 6114.57 1430.96 6116.94L1431.03 6116.99Z" fill="#AF7F58" fill-opacity="0.15"/>
<path fill-rule="evenodd" clip-rule="evenodd" d="M101.361 5721.32C104.094 5723.39 107.347 5724.87 110.933 5725.68C109.198 5722.45 107.808 5719.04 106.781 5715.49C104.798 5707.45 105.217 5698.74 108.001 5690.17C113.756 5673.24 123.872 5661.18 136.457 5648.25C147.892 5637.03 160.042 5626.42 172.823 5616.5C176.912 5612.86 181.199 5609.57 185.288 5605.94C186.272 5604.96 187.306 5603.75 188.265 5602.84C189.225 5601.93 188.67 5602.15 188.508 5603.26C188.346 5604.38 188.665 5602.36 188.209 5600.17C167.396 5587.17 131.857 5602.14 107.842 5634.81C83.8265 5667.48 80.1909 5706.84 100.9 5721.48L101.361 5721.32ZM112.775 5726.29C133.759 5730.49 162.66 5715.28 183.178 5687.48C202.325 5661.59 208.4 5632.14 200.403 5613.47C199.158 5614.85 197.828 5615.97 197.381 5616.49C192.532 5620.31 187.507 5623.82 182.528 5627.31C169.149 5635.91 156.224 5645.16 143.823 5655.01C131.075 5665.94 120.219 5676.28 112.92 5691.5C109.6 5699.18 108.437 5707.18 109.548 5714.7C110.192 5718.71 111.321 5722.57 112.915 5726.21L112.775 5726.29Z" fill="#AF7F58" fill-opacity="0.15"/>
<g clip-path="url(#clip0_12_12)">
<path fill-rule="evenodd" clip-rule="evenodd" d="M300.91 4855.54C297.839 4854.96 294.864 4853.67 292.157 4851.73C295.439 4850.9 298.641 4849.72 301.726 4848.21C308.499 4844.56 314.308 4838.85 318.605 4831.61C326.939 4817.14 329.278 4802.73 330.744 4786.1C331.711 4771.32 331.826 4756.42 331.089 4741.53C331.173 4736.48 330.899 4731.5 330.983 4726.45C331.074 4725.17 331.296 4723.71 331.356 4722.49C331.416 4721.27 331.596 4721.78 330.919 4722.59C330.242 4723.39 331.455 4721.92 333.246 4720.87C354.73 4726.96 365.563 4760.52 357.196 4797.25C348.828 4833.97 323.634 4860.96 301.072 4855.96L300.91 4855.54ZM290.627 4850.86C275.17 4839.16 268.473 4809.97 275.542 4778.67C282.1 4749.49 298.948 4727.01 316.713 4720.83C316.496 4722.54 316.509 4724.15 316.42 4724.77C316.662 4730.46 317.222 4736.07 317.773 4741.64C319.787 4756.12 321.08 4770.7 321.644 4785.29C321.663 4800.79 320.957 4814.63 314.734 4829.09C311.383 4836.13 306.516 4841.91 300.616 4845.84C297.446 4847.89 294.088 4849.53 290.599 4850.71L290.627 4850.86Z" fill="#AF7F58" fill-opacity="0.15"/>
</g>
<g clip-path="url(#clip1_12_12)">
<path fill-rule="evenodd" clip-rule="evenodd" d="M1540.4 4044.2C1545.08 4041.64 1549.39 4037.65 1553.09 4032.47C1547.66 4032.25 1542.25 4031.29 1536.93 4029.58C1525.14 4025.16 1514.27 4016.09 1505.32 4003.23C1487.85 3977.39 1479.87 3948.97 1472.61 3915.61C1466.68 3885.81 1462.07 3855.4 1458.8 3824.6C1457.17 3814.31 1456.12 3804.01 1454.48 3793.72C1453.96 3791.14 1453.17 3788.26 1452.72 3785.79C1452.26 3783.32 1452.13 3784.45 1453.44 3785.79C1454.74 3787.13 1452.39 3784.66 1449.25 3783.32C1417.12 3805.45 1409.99 3878.96 1434.13 3950.31C1458.28 4021.66 1506.11 4065.51 1540.27 4045.13L1540.4 4044.2ZM1555.25 4029.99C1576.19 3999.11 1578.09 3936.41 1557.61 3875.56C1538.56 3818.84 1505.26 3780.44 1475.36 3775.8C1476.21 3779.2 1476.66 3782.5 1476.99 3783.73C1478.3 3795.47 1479.09 3807.2 1479.87 3818.84C1481 3849.36 1483.29 3879.76 1486.74 3909.85C1491.32 3941.56 1496.56 3969.56 1510.69 3996.33C1518.08 4009.22 1527.49 4018.84 1537.98 4024.23C1543.59 4027 1549.38 4028.83 1555.25 4029.69V4029.99Z" fill="#AF7F58" fill-opacity="0.15"/>
</g>
<g clip-path="url(#clip2_12_12)">
<path fill-rule="evenodd" clip-rule="evenodd" d="M91.604 1396.49C86.9227 1393.93 82.6088 1389.94 78.9101 1384.75C84.3406 1384.54 89.7488 1383.57 95.0719 1381.87C106.858 1377.45 117.735 1368.38 126.676 1355.51C144.146 1329.67 152.129 1301.26 159.392 1267.9C165.318 1238.1 169.931 1207.69 173.199 1176.89C174.834 1166.6 175.881 1156.3 177.517 1146C178.041 1143.43 178.826 1140.55 179.284 1138.08C179.742 1135.61 179.873 1136.74 178.564 1138.08C177.255 1139.42 179.611 1136.94 182.752 1135.61C214.879 1157.74 222.011 1231.25 197.867 1302.6C173.722 1373.94 125.891 1417.8 91.7349 1397.42L91.604 1396.49ZM76.7508 1382.28C55.8123 1351.4 53.9147 1288.7 74.3952 1227.85C93.4361 1171.13 126.741 1132.72 156.644 1128.09C155.794 1131.49 155.335 1134.78 155.008 1136.02C153.7 1147.75 152.914 1159.49 152.129 1171.13C151.002 1201.65 148.708 1232.04 145.259 1262.14C140.679 1293.85 135.444 1321.85 121.31 1348.62C113.923 1361.51 104.515 1371.13 94.025 1376.52C88.4057 1379.29 82.6153 1381.12 76.7508 1381.97V1382.28Z" fill="#AF7F58" fill-opacity="0.15"/>
</g>
<path fill-rule="evenodd" clip-rule="evenodd" d="M1376.89 3886.33C1379.35 3885.97 1381.75 3884.85 1383.93 3883.03C1381.32 3881.91 1378.77 3880.42 1376.32 3878.6C1370.95 3874.24 1366.36 3867.8 1363.01 3859.89C1356.51 3844.09 1354.8 3828.82 1353.81 3811.29C1353.2 3795.74 1353.27 3780.14 1354.03 3764.61C1354.02 3759.31 1354.29 3754.13 1354.28 3748.83C1354.22 3747.49 1354.06 3745.94 1354.03 3744.66C1353.99 3743.38 1353.84 3743.9 1354.37 3744.79C1354.91 3745.69 1353.95 3744.05 1352.53 3742.81C1335.29 3747.5 1326.25 3781.77 1332.54 3820.87C1338.82 3859.98 1358.66 3890.21 1376.76 3886.75L1376.89 3886.33ZM1385.17 3882.24C1397.65 3871.21 1403.33 3841.19 1398.03 3807.86C1393.11 3776.8 1379.89 3751.94 1365.75 3744.07C1365.91 3745.88 1365.88 3747.56 1365.94 3748.22C1365.69 3754.16 1365.18 3759.99 1364.67 3765.77C1362.9 3780.77 1361.71 3795.93 1361.09 3811.16C1360.91 3827.38 1361.32 3841.93 1366.13 3857.55C1368.73 3865.19 1372.56 3871.62 1377.23 3876.2C1379.75 3878.6 1382.41 3880.57 1385.19 3882.09L1385.17 3882.24Z" fill="#AF7F58" fill-opacity="0.15"/>
<g clip-path="url(#clip3_12_12)">
<path fill-rule="evenodd" clip-rule="evenodd" d="M119.861 3388.63C112.624 3385.05 105.954 3379.47 100.236 3372.21C108.632 3371.91 116.993 3370.56 125.223 3368.17C143.446 3361.98 160.262 3349.29 174.084 3331.28C201.095 3295.1 213.437 3255.33 224.666 3208.63C233.827 3166.92 240.959 3124.35 246.011 3081.23C248.54 3066.82 250.158 3052.41 252.687 3038C253.497 3034.4 254.711 3030.36 255.419 3026.9C256.127 3023.44 256.329 3025.03 254.306 3026.9C252.283 3028.78 255.925 3025.32 260.78 3023.44C310.451 3054.43 321.478 3157.33 284.149 3257.2C246.82 3357.07 172.871 3418.47 120.064 3389.93L119.861 3388.63ZM96.8975 3368.75C64.5256 3325.51 61.5919 3237.74 93.2557 3152.57C122.694 3073.16 174.186 3019.41 220.417 3012.92C219.102 3017.68 218.394 3022.29 217.888 3024.02C215.864 3040.45 214.65 3056.88 213.437 3073.16C211.694 3115.9 208.147 3158.44 202.814 3200.56C195.733 3244.95 187.64 3284.15 165.789 3321.62C154.367 3339.67 139.822 3353.14 123.604 3360.68C114.917 3364.56 105.964 3367.12 96.8975 3368.31V3368.75Z" fill="#AF7F58" fill-opacity="0.15"/>
</g>
<g clip-path="url(#clip4_12_12)">
<path fill-rule="evenodd" clip-rule="evenodd" d="M1571.09 679.758C1574.63 678.051 1577.89 675.391 1580.69 671.93C1576.58 671.788 1572.49 671.145 1568.47 670.008C1559.55 667.061 1551.32 661.012 1544.55 652.431C1531.34 635.197 1525.3 616.246 1519.8 594C1515.32 574.125 1511.83 553.845 1509.36 533.304C1508.12 526.438 1507.33 519.572 1506.09 512.706C1505.69 510.989 1505.1 509.067 1504.75 507.419C1504.41 505.771 1504.31 506.526 1505.3 507.419C1506.29 508.311 1504.5 506.663 1502.13 505.771C1477.82 520.533 1472.43 569.557 1490.69 617.139C1508.96 664.721 1545.15 693.97 1570.99 680.376L1571.09 679.758ZM1582.33 670.282C1598.17 649.684 1599.6 607.87 1584.11 567.291C1569.7 529.459 1544.5 503.848 1521.88 500.759C1522.52 503.024 1522.87 505.222 1523.12 506.045C1524.11 513.873 1524.7 521.7 1525.3 529.459C1526.15 549.817 1527.89 570.086 1530.5 590.155C1533.96 611.303 1537.92 629.979 1548.61 647.83C1554.2 656.43 1561.32 662.846 1569.26 666.437C1573.51 668.288 1577.89 669.508 1582.33 670.076V670.282Z" fill="#AF7F58" fill-opacity="0.15"/>
</g>
<g clip-path="url(#clip5_12_12)">
<path fill-rule="evenodd" clip-rule="evenodd" d="M78.5743 146.248C74.7861 144.852 71.2953 142.676 68.3022 139.846C72.6967 139.729 77.073 139.203 81.3806 138.273C90.9183 135.862 99.7198 130.914 106.955 123.895C121.092 109.798 127.552 94.2974 133.429 76.1007C138.224 59.8433 141.957 43.2547 144.601 26.4528C145.925 20.8365 146.772 15.2202 148.096 9.60391C148.52 8.19984 149.155 6.62725 149.526 5.27934C149.896 3.93144 150.002 4.54923 148.943 5.27934C147.884 6.00946 149.79 4.66152 152.332 3.93141C178.33 16.0064 184.101 56.1067 164.563 95.0275C145.025 133.948 106.319 157.874 78.6802 146.753L78.5743 146.248ZM66.5549 138.498C49.6113 121.649 48.0758 87.4456 64.6487 54.2533C80.0568 23.3076 107.008 2.35887 131.205 -0.168457C130.517 1.68492 130.146 3.48215 129.882 4.15611C128.823 10.5587 128.187 16.9612 127.552 23.3076C126.64 39.9602 124.783 56.5396 121.992 72.9556C118.286 90.2537 114.05 105.53 102.613 120.132C96.6348 127.167 89.0216 132.415 80.5334 135.352C75.9862 136.866 71.3005 137.864 66.5549 138.329V138.498Z" fill="#AF7F58" fill-opacity="0.15"/>
</g>
<g clip-path="url(#clip6_12_12)">
<path fill-rule="evenodd" clip-rule="evenodd" d="M403.911 3100.89C400.369 3099.18 397.105 3096.52 394.307 3093.06C398.416 3092.92 402.507 3092.28 406.535 3091.14C415.452 3088.19 423.681 3082.14 430.446 3073.56C443.663 3056.33 449.703 3037.38 455.198 3015.13C459.681 2995.26 463.171 2974.98 465.644 2954.44C466.881 2947.57 467.673 2940.7 468.911 2933.84C469.307 2932.12 469.901 2930.2 470.248 2928.55C470.594 2926.9 470.693 2927.66 469.703 2928.55C468.713 2929.44 470.495 2927.8 472.871 2926.9C497.178 2941.67 502.574 2990.69 484.307 3038.27C466.04 3085.85 429.852 3115.1 404.01 3101.51L403.911 3100.89ZM392.673 3091.41C376.832 3070.82 375.396 3029 390.891 2988.42C405.297 2950.59 430.495 2924.98 453.119 2921.89C452.475 2924.16 452.129 2926.35 451.881 2927.18C450.891 2935.01 450.297 2942.83 449.703 2950.59C448.85 2970.95 447.114 2991.22 444.505 3011.29C441.04 3032.44 437.079 3051.11 426.386 3068.96C420.797 3077.56 413.679 3083.98 405.743 3087.57C401.491 3089.42 397.11 3090.64 392.673 3091.21V3091.41Z" fill="#AF7F58" fill-opacity="0.15"/>
</g>
<g clip-path="url(#clip7_12_12)">
<path fill-rule="evenodd" clip-rule="evenodd" d="M1563.4 1897.09C1568.08 1894.53 1572.39 1890.54 1576.09 1885.35C1570.66 1885.14 1565.25 1884.18 1559.93 1882.47C1548.14 1878.05 1537.27 1868.98 1528.32 1856.11C1510.85 1830.27 1502.87 1801.86 1495.61 1768.5C1489.68 1738.7 1485.07 1708.29 1481.8 1677.49C1480.17 1667.2 1479.12 1656.9 1477.48 1646.61C1476.96 1644.03 1476.17 1641.15 1475.72 1638.68C1475.26 1636.21 1475.13 1637.34 1476.44 1638.68C1477.74 1640.02 1475.39 1637.55 1472.25 1636.21C1440.12 1658.34 1432.99 1731.85 1457.13 1803.2C1481.28 1874.54 1529.11 1918.4 1563.27 1898.02L1563.4 1897.09ZM1578.25 1882.88C1599.19 1852 1601.09 1789.3 1580.61 1728.45C1561.56 1671.73 1528.26 1633.32 1498.36 1628.69C1499.21 1632.09 1499.66 1635.38 1499.99 1636.62C1501.3 1648.36 1502.09 1660.09 1502.87 1671.73C1504 1702.25 1506.29 1732.64 1509.74 1762.74C1514.32 1794.45 1519.56 1822.45 1533.69 1849.22C1541.08 1862.11 1550.49 1871.73 1560.98 1877.12C1566.59 1879.89 1572.38 1881.72 1578.25 1882.57V1882.88Z" fill="#AF7F58" fill-opacity="0.15"/>
</g>
<defs>
<clipPath id="clip0_12_12">
<rect width="94.5961" height="130.486" fill="white" transform="matrix(0.976633 -0.214912 0.185059 0.982727 258 4733.9)"/>
</clipPath>
<clipPath id="clip1_12_12">
<rect width="152" height="273.134" fill="white" transform="matrix(-1 0 0 1 1572 3776.11)"/>
</clipPath>
<clipPath id="clip2_12_12">
<rect width="152" height="273.134" fill="white" transform="translate(60 1128.4)"/>
</clipPath>
<clipPath id="clip3_12_12">
<rect width="235" height="382.341" fill="white" transform="translate(71 3013.36)"/>
</clipPath>
<clipPath id="clip4_12_12">
<rect width="115" height="182.158" fill="white" transform="matrix(-1 0 0 1 1595 500.965)"/>
</clipPath>
<clipPath id="clip5_12_12">
<rect width="123" height="149" fill="white" transform="translate(53)"/>
</clipPath>
<clipPath id="clip6_12_12">
<rect width="115" height="182.158" fill="white" transform="translate(380 2922.1)"/>
</clipPath>
<clipPath id="clip7_12_12">
<rect width="152" height="273.134" fill="white" transform="matrix(-1 0 0 1 1595 1629)"/>
</clipPath>
</defs>
</svg>
