<svg width="234" height="36" viewBox="0 0 234 36" fill="none" xmlns="http://www.w3.org/2000/svg">
<g clip-path="url(#clip0_12_3269)">
<path d="M120.697 27.7185C115.615 27.7185 110.771 25.2629 107.05 20.8057C104.124 17.1941 102.138 12.9148 101.268 8.34914C101.223 8.12803 101.228 7.89967 101.281 7.68051C101.335 7.46134 101.437 7.25684 101.579 7.08175C101.722 6.90665 101.901 6.76532 102.105 6.66794C102.308 6.57056 102.531 6.51955 102.756 6.5186H138.63C138.858 6.51247 139.084 6.55878 139.292 6.65395C139.499 6.74911 139.681 6.8906 139.825 7.06748C139.969 7.24437 140.07 7.45193 140.121 7.67415C140.172 7.89636 140.171 8.1273 140.119 8.34914C139.251 12.9142 137.267 17.1936 134.344 20.8057C130.579 25.2629 125.735 27.7185 120.697 27.7185Z" fill="white"/>
<path d="M145.32 1.24292C144.966 0.853406 144.536 0.541755 144.055 0.327805C143.575 0.113856 143.055 0.00229779 142.529 0.000244141H98.7826C98.2568 0.00275177 97.7373 0.114509 97.2569 0.32843C96.7765 0.54235 96.3459 0.853764 95.9922 1.24292C95.1838 2.128 94.7446 3.28874 94.7644 4.48727C92.6438 4.86181 90.7142 5.9483 89.2943 7.56738C87.8744 9.18647 87.0491 11.2413 86.9546 13.3927C86.86 15.5442 87.502 17.6635 88.7744 19.4009C90.0468 21.1382 91.8737 22.3898 93.9533 22.9488C94.9372 23.2368 95.9568 23.3846 96.9819 23.3879C98.2497 23.3761 99.5068 23.1548 100.702 22.733C101.347 23.6868 102.045 24.6036 102.793 25.4788C105.278 28.4218 108.393 30.7669 111.909 32.3396H105.524C105.053 32.3396 104.6 32.527 104.267 32.8605C103.933 33.194 103.746 33.6464 103.746 34.118C103.746 34.5897 103.933 35.0421 104.267 35.3756C104.6 35.7091 105.053 35.8965 105.524 35.8965H135.81C136.282 35.8965 136.734 35.7091 137.068 35.3756C137.401 35.0421 137.588 34.5897 137.588 34.118C137.588 33.6464 137.401 33.194 137.068 32.8605C136.734 32.527 136.282 32.3396 135.81 32.3396H129.336C132.848 30.7646 135.961 28.4198 138.444 25.4788C143.139 20.0319 145.997 12.68 146.503 4.77748C146.558 4.13873 146.481 3.49551 146.278 2.88756C146.074 2.27961 145.748 1.71986 145.32 1.24292ZM94.8835 19.5184C93.606 19.177 92.48 18.417 91.6857 17.3599C90.8913 16.3029 90.4745 15.0099 90.502 13.6879C90.5294 12.3659 90.9995 11.0913 91.837 10.0681C92.6745 9.04494 93.8311 8.33227 95.1216 8.04415C95.7081 12.0721 96.9657 15.9733 98.8422 19.5854C97.5408 19.921 96.1728 19.8979 94.8835 19.5184ZM120.697 29.7277C109.535 29.7277 100.152 18.6404 99.244 4.49471H142.142C141.577 18.1642 131.777 29.7277 120.697 29.7277Z" fill="#4E3D33"/>
<path d="M102.92 13.9301C103.923 16.4184 105.304 18.7375 107.013 20.8057C110.733 25.2704 115.577 27.7186 120.66 27.7186C125.742 27.7186 130.579 25.263 134.307 20.8057C136.011 18.7354 137.389 16.4167 138.392 13.9301H102.92Z" fill="#4E3D33"/>
<path opacity="0.8" d="M207.193 27.7185C202.118 27.7185 197.274 25.2629 193.553 20.8057C190.625 17.196 188.638 12.9158 187.772 8.34914C187.719 8.1273 187.718 7.89636 187.769 7.67415C187.82 7.45193 187.921 7.24437 188.065 7.06748C188.209 6.8906 188.391 6.74911 188.599 6.65395C188.806 6.55878 189.032 6.51247 189.26 6.5186H225.134C225.362 6.51247 225.588 6.55878 225.795 6.65395C226.002 6.74911 226.185 6.8906 226.329 7.06748C226.472 7.24437 226.574 7.45193 226.625 7.67415C226.675 7.89636 226.675 8.1273 226.622 8.34914C225.752 12.9148 223.766 17.1941 220.84 20.8057C217.12 25.2629 212.275 27.7185 207.193 27.7185Z" fill="white"/>
<path d="M207.193 27.7185C202.118 27.7185 197.274 25.2629 193.553 20.8057C190.625 17.196 188.638 12.9158 187.772 8.34914C187.719 8.1273 187.718 7.89636 187.769 7.67415C187.82 7.45193 187.921 7.24437 188.065 7.06748C188.209 6.8906 188.391 6.74911 188.599 6.65395C188.806 6.55878 189.032 6.51247 189.26 6.5186H225.134C225.362 6.51247 225.588 6.55878 225.795 6.65395C226.002 6.74911 226.185 6.8906 226.329 7.06748C226.472 7.24437 226.574 7.45193 226.625 7.67415C226.675 7.89636 226.675 8.1273 226.622 8.34914C225.752 12.9148 223.766 17.1941 220.84 20.8057C217.12 25.2629 212.275 27.7185 207.193 27.7185Z" fill="white"/>
<path d="M231.861 1.24292C231.507 0.853764 231.076 0.54235 230.596 0.32843C230.116 0.114509 229.596 0.00275177 229.07 0.000244141H185.323C184.798 0.00275177 184.278 0.114509 183.798 0.32843C183.317 0.54235 182.887 0.853764 182.533 1.24292C181.721 2.12597 181.282 3.28808 181.305 4.48727C179.185 4.86181 177.255 5.9483 175.835 7.56738C174.415 9.18647 173.59 11.2413 173.495 13.3927C173.401 15.5442 174.043 17.6635 175.315 19.4009C176.588 21.1382 178.414 22.3898 180.494 22.9488C181.478 23.2382 182.497 23.386 183.523 23.3879C184.803 23.3802 186.073 23.1589 187.28 22.733C187.923 23.6886 188.621 24.6054 189.371 25.4788C191.855 28.4198 194.967 30.7646 198.479 32.3396H192.132C191.66 32.3396 191.208 32.527 190.875 32.8605C190.541 33.194 190.354 33.6464 190.354 34.118C190.354 34.5897 190.541 35.0421 190.875 35.3756C191.208 35.7091 191.66 35.8965 192.132 35.8965H222.425C222.897 35.8965 223.349 35.7091 223.683 35.3756C224.016 35.0421 224.204 34.5897 224.204 34.118C224.204 33.6464 224.016 33.194 223.683 32.8605C223.349 32.527 222.897 32.3396 222.425 32.3396H215.944C219.456 30.7646 222.569 28.4198 225.052 25.4788C229.74 20.0319 232.605 12.68 233.111 4.77748C233.157 4.13401 233.069 3.48798 232.854 2.87979C232.639 2.27161 232.301 1.71435 231.861 1.24292ZM181.424 19.5184C180.147 19.177 179.021 18.417 178.226 17.3599C177.432 16.3029 177.015 15.0099 177.043 13.6879C177.07 12.3659 177.54 11.0913 178.378 10.0681C179.215 9.04494 180.372 8.33227 181.662 8.04415C182.245 12.0729 183.503 15.9747 185.383 19.5854C184.082 19.921 182.714 19.8979 181.424 19.5184ZM207.193 29.7277C196.076 29.7277 186.655 18.6404 185.748 4.49471H228.646C228.118 18.1642 218.318 29.7277 207.193 29.7277Z" fill="#4E3D33"/>
<path d="M191.499 17.9482C192.116 18.948 192.802 19.9029 193.553 20.8057C197.274 25.2704 202.118 27.7185 207.193 27.7185C212.268 27.7185 217.119 25.2629 220.84 20.8057C221.591 19.9029 222.278 18.948 222.894 17.9482H191.499Z" fill="#4E3D33"/>
<path d="M191.5 17.9483H222.894C224.287 15.6729 225.354 13.2132 226.064 10.6411H188.33C189.039 13.2132 190.106 15.6729 191.5 17.9483Z" fill="#FFE6CF"/>
<path d="M58.7864 1.24292C58.4327 0.853764 58.002 0.54235 57.5217 0.32843C57.0413 0.114509 56.5217 0.00275177 55.9959 0.000244141H12.2418C11.716 0.00275177 11.1964 0.114509 10.716 0.32843C10.2357 0.54235 9.805 0.853764 9.45136 1.24292C8.64501 2.12874 8.20834 3.28963 8.23099 4.48727C6.11002 4.86081 4.17985 5.94648 2.75916 7.56503C1.33847 9.18359 0.512217 11.2382 0.416826 13.3897C0.321435 15.5412 0.9626 17.661 2.23447 19.3989C3.50635 21.1368 5.33289 22.389 7.41248 22.9488C8.39877 23.2373 9.42085 23.3851 10.4485 23.3879C11.7163 23.3768 12.9736 23.1555 14.1691 22.733C14.8139 23.6868 15.512 24.6036 16.26 25.4788C18.7458 28.4201 21.8611 30.7649 25.3755 32.3396H18.991C18.5193 32.3396 18.0669 32.527 17.7334 32.8605C17.3999 33.194 17.2125 33.6464 17.2125 34.118C17.2125 34.5897 17.3999 35.0421 17.7334 35.3756C18.0669 35.7091 18.5193 35.8965 18.991 35.8965H49.284C49.7556 35.8965 50.208 35.7091 50.5415 35.3756C50.875 35.0421 51.0624 34.5897 51.0624 34.118C51.0624 33.6464 50.875 33.194 50.5415 32.8605C50.208 32.527 49.7556 32.3396 49.284 32.3396H42.8027C46.3159 30.7666 49.4292 28.4215 51.9107 25.4788C56.6061 20.0319 59.4709 12.68 59.9769 4.77748C60.0274 4.13846 59.9479 3.49586 59.7433 2.88839C59.5387 2.28092 59.2131 1.72118 58.7864 1.24292ZM8.33518 19.5184C7.06301 19.1707 5.94353 18.4078 5.15456 17.351C4.36559 16.2942 3.95239 15.004 3.98061 13.6855C4.00883 12.3669 4.47684 11.0956 5.31029 10.0735C6.14375 9.05143 7.29484 8.33715 8.58073 8.04415C9.16348 12.073 10.4213 15.9748 12.3013 19.5854C10.9976 19.9224 9.62682 19.8992 8.33518 19.5184ZM34.1114 29.7277C22.9943 29.7277 13.5738 18.6404 12.666 4.49471H55.5569C55.036 18.1642 45.236 29.7277 34.1189 29.7277H34.1114Z" fill="#4E3D33"/>
<path d="M18.4179 17.9482C19.0342 18.948 19.7205 19.9029 20.4717 20.8057C24.1923 25.2704 29.0365 27.7185 34.1188 27.7185C39.2011 27.7185 44.0453 25.2629 47.7659 20.8057C48.5171 19.9029 49.2034 18.948 49.8197 17.9482H18.4179Z" fill="#4E3D33"/>
</g>
<defs>
<clipPath id="clip0_12_3269">
<rect width="232.678" height="35.8962" fill="white" transform="translate(0.41748 0.00012207)"/>
</clipPath>
</defs>
</svg>
