<svg width="31" height="32" viewBox="0 0 31 32" fill="none" xmlns="http://www.w3.org/2000/svg">
<path d="M15.6371 10.902V20.8879L19.6699 23.3524L18.6137 18.7435L22.1664 15.6709L17.4935 15.2549L15.6371 10.902ZM15.6371 23.8965L10.3241 27.0971C10.0894 27.2465 9.84405 27.3105 9.588 27.2891C9.33196 27.2678 9.10791 27.1825 8.91588 27.0331C8.72384 26.8837 8.57448 26.6972 8.46779 26.4736C8.36111 26.2492 8.33977 25.9982 8.40378 25.7208L9.81205 19.6717L5.10716 15.6069C4.89378 15.4149 4.76064 15.196 4.70772 14.9502C4.65395 14.7052 4.66974 14.4654 4.75509 14.2307C4.84044 13.996 4.96846 13.8039 5.13916 13.6546C5.30986 13.5052 5.54457 13.4092 5.8433 13.3665L12.0525 12.8224L14.4529 7.12532C14.5596 6.86928 14.7252 6.67724 14.9497 6.54921C15.1733 6.42119 15.4024 6.35718 15.6371 6.35718C15.8719 6.35718 16.1014 6.42119 16.3259 6.54921C16.5495 6.67724 16.7147 6.86928 16.8214 7.12532L19.2218 12.8224L25.431 13.3665C25.7297 13.4092 25.9644 13.5052 26.1351 13.6546C26.3058 13.8039 26.4339 13.996 26.5192 14.2307C26.6046 14.4654 26.6208 14.7052 26.5679 14.9502C26.5141 15.196 26.3805 15.4149 26.1671 15.6069L21.4622 19.6717L22.8705 25.7208C22.9345 25.9982 22.9132 26.2492 22.8065 26.4736C22.6998 26.6972 22.5505 26.8837 22.3584 27.0331C22.1664 27.1825 21.9423 27.2678 21.6863 27.2891C21.4302 27.3105 21.1849 27.2465 20.9501 27.0971L15.6371 23.8965Z" fill="url(#paint0_linear_12_3560)"/>
<defs>
<linearGradient id="paint0_linear_12_3560" x1="20.745" y1="1.49049" x2="-0.474271" y2="9.25875" gradientUnits="userSpaceOnUse">
<stop stop-color="#E0A872"/>
<stop offset="0.444501" stop-color="#F8E4BE"/>
<stop offset="0.549712" stop-color="#FFF3E0"/>
<stop offset="1" stop-color="#E0A872"/>
</linearGradient>
</defs>
</svg>
