<svg width="31" height="32" viewBox="0 0 31 32" fill="none" xmlns="http://www.w3.org/2000/svg">
<path d="M15.4544 23.8965L10.1414 27.0971C9.9067 27.2465 9.66132 27.3105 9.40527 27.2891C9.14922 27.2678 8.92518 27.1825 8.73315 27.0331C8.54111 26.8837 8.39175 26.6972 8.28506 26.4736C8.17837 26.2492 8.15704 25.9982 8.22105 25.7208L9.62931 19.6717L4.92443 15.6069C4.71105 15.4149 4.57791 15.196 4.52499 14.9502C4.47122 14.7052 4.48701 14.4654 4.57236 14.2307C4.65771 13.996 4.78573 13.8039 4.95643 13.6546C5.12713 13.5052 5.36184 13.4092 5.66056 13.3665L11.8697 12.8224L14.2702 7.12532C14.3769 6.86928 14.5425 6.67724 14.7669 6.54921C14.9905 6.42119 15.2197 6.35718 15.4544 6.35718C15.6891 6.35718 15.9187 6.42119 16.1432 6.54921C16.3668 6.67724 16.532 6.86928 16.6386 7.12532L19.0391 12.8224L25.2483 13.3665C25.547 13.4092 25.7817 13.5052 25.9524 13.6546C26.1231 13.8039 26.2511 13.996 26.3365 14.2307C26.4218 14.4654 26.438 14.7052 26.3851 14.9502C26.3314 15.196 26.1978 15.4149 25.9844 15.6069L21.2795 19.6717L22.6878 25.7208C22.7518 25.9982 22.7305 26.2492 22.6238 26.4736C22.5171 26.6972 22.3677 26.8837 22.1757 27.0331C21.9836 27.1825 21.7596 27.2678 21.5036 27.2891C21.2475 27.3105 21.0021 27.2465 20.7674 27.0971L15.4544 23.8965Z" fill="url(#paint0_linear_12_3556)"/>
<defs>
<linearGradient id="paint0_linear_12_3556" x1="20.5623" y1="1.49049" x2="-0.657003" y2="9.25875" gradientUnits="userSpaceOnUse">
<stop stop-color="#E0A872"/>
<stop offset="0.444501" stop-color="#F8E4BE"/>
<stop offset="0.549712" stop-color="#FFF3E0"/>
<stop offset="1" stop-color="#E0A872"/>
</linearGradient>
</defs>
</svg>
