<svg width="31" height="32" viewBox="0 0 31 32" fill="none" xmlns="http://www.w3.org/2000/svg">
<path d="M15.5457 23.8965L10.2327 27.0971C9.99794 27.2465 9.75256 27.3105 9.49651 27.2891C9.24047 27.2678 9.01642 27.1825 8.82439 27.0331C8.63235 26.8837 8.48299 26.6972 8.3763 26.4736C8.26962 26.2492 8.24828 25.9982 8.31229 25.7208L9.72056 19.6717L5.01567 15.6069C4.80229 15.4149 4.66915 15.196 4.61623 14.9502C4.56246 14.7052 4.57825 14.4654 4.6636 14.2307C4.74895 13.996 4.87698 13.8039 5.04767 13.6546C5.21837 13.5052 5.45308 13.4092 5.75181 13.3665L11.961 12.8224L14.3614 7.12532C14.4681 6.86928 14.6337 6.67724 14.8582 6.54921C15.0818 6.42119 15.3109 6.35718 15.5457 6.35718C15.7804 6.35718 16.01 6.42119 16.2344 6.54921C16.458 6.67724 16.6232 6.86928 16.7299 7.12532L19.1303 12.8224L25.3395 13.3665C25.6382 13.4092 25.8729 13.5052 26.0436 13.6546C26.2143 13.8039 26.3424 13.996 26.4277 14.2307C26.5131 14.4654 26.5293 14.7052 26.4764 14.9502C26.4226 15.196 26.289 15.4149 26.0756 15.6069L21.3708 19.6717L22.779 25.7208C22.843 25.9982 22.8217 26.2492 22.715 26.4736C22.6083 26.6972 22.459 26.8837 22.2669 27.0331C22.0749 27.1825 21.8509 27.2678 21.5948 27.2891C21.3388 27.3105 21.0934 27.2465 20.8587 27.0971L15.5457 23.8965Z" fill="url(#paint0_linear_12_3558)"/>
<defs>
<linearGradient id="paint0_linear_12_3558" x1="20.6535" y1="1.49049" x2="-0.56576" y2="9.25875" gradientUnits="userSpaceOnUse">
<stop stop-color="#E0A872"/>
<stop offset="0.444501" stop-color="#F8E4BE"/>
<stop offset="0.549712" stop-color="#FFF3E0"/>
<stop offset="1" stop-color="#E0A872"/>
</linearGradient>
</defs>
</svg>
