<svg width="31" height="32" viewBox="0 0 31 32" fill="none" xmlns="http://www.w3.org/2000/svg">
<path d="M15.3629 23.8965L10.0499 27.0971C9.81522 27.2465 9.56984 27.3105 9.31379 27.2891C9.05774 27.2678 8.8337 27.1825 8.64166 27.0331C8.44963 26.8837 8.30026 26.6972 8.19358 26.4736C8.08689 26.2492 8.06555 25.9982 8.12956 25.7208L9.53783 19.6717L4.83294 15.6069C4.61957 15.4149 4.48642 15.196 4.43351 14.9502C4.37974 14.7052 4.39553 14.4654 4.48087 14.2307C4.56622 13.996 4.69425 13.8039 4.86495 13.6546C5.03565 13.5052 5.27036 13.4092 5.56908 13.3665L11.7783 12.8224L14.1787 7.12532C14.2854 6.86928 14.451 6.67724 14.6754 6.54921C14.8991 6.42119 15.1282 6.35718 15.3629 6.35718C15.5976 6.35718 15.8272 6.42119 16.0517 6.54921C16.2753 6.67724 16.4405 6.86928 16.5472 7.12532L18.9476 12.8224L25.1568 13.3665C25.4555 13.4092 25.6902 13.5052 25.8609 13.6546C26.0316 13.8039 26.1596 13.996 26.245 14.2307C26.3303 14.4654 26.3466 14.7052 26.2936 14.9502C26.2399 15.196 26.1063 15.4149 25.8929 15.6069L21.188 19.6717L22.5963 25.7208C22.6603 25.9982 22.639 26.2492 22.5323 26.4736C22.4256 26.6972 22.2762 26.8837 22.0842 27.0331C21.8922 27.1825 21.6681 27.2678 21.4121 27.2891C21.156 27.3105 20.9106 27.2465 20.6759 27.0971L15.3629 23.8965Z" fill="url(#paint0_linear_12_3554)"/>
<defs>
<linearGradient id="paint0_linear_12_3554" x1="20.4708" y1="1.49049" x2="-0.748487" y2="9.25875" gradientUnits="userSpaceOnUse">
<stop stop-color="#E0A872"/>
<stop offset="0.444501" stop-color="#F8E4BE"/>
<stop offset="0.549712" stop-color="#FFF3E0"/>
<stop offset="1" stop-color="#E0A872"/>
</linearGradient>
</defs>
</svg>
